<svg width="3753" height="766" viewBox="0 0 3753 766" fill="none" xmlns="http://www.w3.org/2000/svg">
<mask id="path-1-outside-1" maskUnits="userSpaceOnUse" x="-0.455078" y="0.680908" width="3754" height="765" fill="black">
<rect fill="white" x="-0.455078" y="0.680908" width="3754" height="765"/>
<path d="M1775.2 331.068C1748.98 331.068 1729.43 324.175 1716.55 310.389C1703.89 296.377 1697.11 274.229 1696.21 243.945L1748.08 236.148C1748.3 253.55 1750.34 266.093 1754.18 273.777C1758.25 281.235 1764.24 284.964 1772.15 284.964C1782.32 284.964 1787.4 278.297 1787.4 264.963C1787.4 254.341 1784.92 245.188 1779.94 237.504C1775.2 229.82 1767.63 221.571 1757.23 212.757L1733.5 192.078C1721.75 182.134 1712.6 171.625 1706.04 160.551C1699.71 149.251 1696.55 135.917 1696.55 120.549C1696.55 97.4969 1703.33 79.7559 1716.89 67.3259C1730.68 54.8959 1749.55 48.6809 1773.5 48.6809C1799.49 48.6809 1817.12 56.2519 1826.39 71.3939C1835.88 86.5359 1840.96 104.955 1841.64 126.651L1789.44 133.092C1788.98 118.854 1787.63 108.684 1785.37 102.582C1783.33 96.2539 1778.7 93.0899 1771.47 93.0899C1766.27 93.0899 1762.2 95.3499 1759.26 99.8699C1756.55 104.164 1755.2 109.023 1755.2 114.447C1755.2 123.713 1757.23 131.51 1761.3 137.838C1765.59 144.166 1772.37 151.398 1781.64 159.534L1804.35 179.535C1817.91 191.061 1828.42 203.265 1835.88 216.147C1843.34 229.029 1847.07 244.284 1847.07 261.912C1847.07 274.794 1844.01 286.546 1837.91 297.168C1832.04 307.564 1823.67 315.813 1812.83 321.915C1801.98 328.017 1789.44 331.068 1775.2 331.068Z"/>
<path d="M1912.45 52.4099H1981.6L2032.79 327H1976.86L1967.7 269.031H1927.36L1917.87 327H1860.58L1912.45 52.4099ZM1961.94 232.758L1947.36 125.634L1932.79 232.758H1961.94Z"/>
<path d="M2037.04 52.4099H2088.91L2118.4 238.86L2145.86 52.4099H2200.78L2150.6 327H2086.53L2037.04 52.4099Z"/>
<path d="M2228.36 52.4099H2351.75V93.7679H2289.04V161.907H2336.84V203.943H2289.04V285.981H2352.43V327H2228.36V52.4099Z"/>
<path d="M2491.47 97.4969H2450.11V52.4099H2593.5V97.4969H2552.49V327H2491.47V97.4969Z"/>
<path d="M2618.7 52.4099H2679.38V163.602H2721.75V52.4099H2782.77V327H2721.75V206.994H2679.38V327H2618.7V52.4099Z"/>
<path d="M2824.59 52.4099H2947.98V93.7679H2885.27V161.907H2933.07V203.943H2885.27V285.981H2948.66V327H2824.59V52.4099Z"/>
<path d="M3062.95 52.4099H3132.44C3156.17 52.4099 3174.7 55.3479 3188.04 61.2239C3201.37 67.0999 3210.75 76.3659 3216.18 89.0219C3221.83 101.452 3224.65 118.176 3224.65 139.194V238.86C3224.65 260.104 3221.83 277.054 3216.18 289.71C3210.75 302.366 3201.37 311.745 3188.04 317.847C3174.93 323.949 3156.62 327 3133.12 327H3062.95V52.4099ZM3133.12 284.964C3141.93 284.964 3148.38 283.721 3152.44 281.235C3156.74 278.523 3159.45 274.794 3160.58 270.048C3161.71 265.076 3162.27 257.844 3162.27 248.352V128.685C3162.27 119.871 3161.6 113.204 3160.24 108.684C3159.11 103.938 3156.4 100.435 3152.1 98.1749C3148.04 95.9149 3141.6 94.7849 3132.78 94.7849H3123.63V284.964H3133.12Z"/>
<path d="M3296.25 52.4099H3365.41L3416.6 327H3360.66L3351.51 269.031H3311.17L3301.68 327H3244.39L3296.25 52.4099ZM3345.75 232.758L3331.17 125.634L3316.59 232.758H3345.75Z"/>
<path d="M3454.5 97.4969H3413.15V52.4099H3556.54V97.4969H3515.52V327H3454.5V97.4969Z"/>
<path d="M3580.72 52.4099H3704.11V93.7679H3641.4V161.907H3689.2V203.943H3641.4V285.981H3704.79V327H3580.72V52.4099Z"/>
<path d="M128.532 671.068C102.316 671.068 82.7669 664.175 69.8849 650.389C57.2289 636.377 50.4489 614.229 49.5449 583.945L101.412 576.148C101.638 593.55 103.672 606.093 107.514 613.777C111.582 621.235 117.571 624.964 125.481 624.964C135.651 624.964 140.736 618.297 140.736 604.963C140.736 594.341 138.25 585.188 133.278 577.504C128.532 569.82 120.961 561.571 110.565 552.757L86.8349 532.078C75.0829 522.134 65.9299 511.625 59.3759 500.551C53.0479 489.251 49.8839 475.917 49.8839 460.549C49.8839 437.497 56.6639 419.756 70.2239 407.326C84.0099 394.896 102.881 388.681 126.837 388.681C152.827 388.681 170.455 396.252 179.721 411.394C189.213 426.536 194.298 444.955 194.976 466.651L142.77 473.092C142.318 458.854 140.962 448.684 138.702 442.582C136.668 436.254 132.035 433.09 124.803 433.09C119.605 433.09 115.537 435.35 112.599 439.87C109.887 444.164 108.531 449.023 108.531 454.447C108.531 463.713 110.565 471.51 114.633 477.838C118.927 484.166 125.707 491.398 134.973 499.534L157.686 519.535C171.246 531.061 181.755 543.265 189.213 556.147C196.671 569.029 200.4 584.284 200.4 601.912C200.4 614.794 197.349 626.546 191.247 637.168C185.371 647.564 177.009 655.813 166.161 661.915C155.313 668.017 142.77 671.068 128.532 671.068Z"/>
<path d="M265.779 392.41H334.935L386.124 667H330.189L321.036 609.031H280.695L271.203 667H213.912L265.779 392.41ZM315.273 572.758L300.696 465.634L286.119 572.758H315.273Z"/>
<path d="M424.029 437.497H382.671V392.41H526.068V437.497H485.049V667H424.029V437.497Z"/>
<path d="M629.569 671.068C609.003 671.068 592.731 667.791 580.753 661.237C568.775 654.457 560.3 644.626 555.328 631.744C550.582 618.636 548.209 602.025 548.209 581.911V392.41H608.212V591.064C608.212 602.138 609.568 610.952 612.28 617.506C615.218 624.06 620.981 627.337 629.569 627.337C638.157 627.337 643.807 624.06 646.519 617.506C649.231 610.952 650.587 602.138 650.587 591.064V392.41H710.929V581.911C710.929 602.025 708.443 618.636 703.471 631.744C698.499 644.626 690.024 654.457 678.046 661.237C666.294 667.791 650.135 671.068 629.569 671.068Z"/>
<path d="M749.538 392.41H825.135C855.193 392.41 877.906 397.721 893.274 408.343C908.642 418.965 916.326 437.836 916.326 464.956C916.326 483.262 913.953 497.839 909.207 508.687C904.461 519.535 895.647 528.01 882.765 534.112L920.394 667H857.679L827.508 543.943H810.219V667H749.538V392.41ZM827.169 509.026C839.373 509.026 847.848 505.862 852.594 499.534C857.566 492.98 860.052 483.262 860.052 470.38C860.052 457.95 857.792 448.684 853.272 442.582C848.752 436.254 840.955 433.09 829.881 433.09H810.219V509.026H827.169Z"/>
<path d="M952.805 392.41H1022.3C1046.03 392.41 1064.56 395.348 1077.9 401.224C1091.23 407.1 1100.61 416.366 1106.03 429.022C1111.68 441.452 1114.51 458.176 1114.51 479.194V578.86C1114.51 600.104 1111.68 617.054 1106.03 629.71C1100.61 642.366 1091.23 651.745 1077.9 657.847C1064.79 663.949 1046.48 667 1022.98 667H952.805V392.41ZM1022.98 624.964C1031.79 624.964 1038.23 623.721 1042.3 621.235C1046.6 618.523 1049.31 614.794 1050.44 610.048C1051.57 605.076 1052.13 597.844 1052.13 588.352V468.685C1052.13 459.871 1051.45 453.204 1050.1 448.684C1048.97 443.938 1046.26 440.435 1041.96 438.175C1037.89 435.915 1031.45 434.785 1022.64 434.785H1013.49V624.964H1022.98Z"/>
<path d="M1186.11 392.41H1255.27L1306.46 667H1250.52L1241.37 609.031H1201.03L1191.54 667H1134.24L1186.11 392.41ZM1235.61 572.758L1221.03 465.634L1206.45 572.758H1235.61Z"/>
<path d="M1355.18 554.791L1302.98 392.41H1360.27L1386.37 479.194L1409.76 392.41H1464.68L1413.49 554.791V667H1355.18V554.791Z"/>
<path d="M1485.46 696.493C1492.69 694.685 1498.45 691.521 1502.75 687.001C1507.27 682.707 1509.53 676.04 1509.53 667H1480.37V614.794H1532.92V659.881C1532.46 694.007 1517.77 712.2 1488.85 714.46L1485.46 696.493Z"/>
<path d="M1657.38 392.41H1722.46L1752.64 552.079L1785.18 392.41H1847.89L1852.64 667H1809.59L1804.5 484.279L1772.64 667H1734.33L1700.43 482.923L1696.36 667H1652.63L1657.38 392.41Z"/>
<path d="M1930.98 392.41H2000.14L2051.33 667H1995.39L1986.24 609.031H1945.9L1936.41 667H1879.12L1930.98 392.41ZM1980.48 572.758L1965.9 465.634L1951.32 572.758H1980.48Z"/>
<path d="M2079.05 392.41H2154.65C2184.71 392.41 2207.42 397.721 2222.79 408.343C2238.16 418.965 2245.84 437.836 2245.84 464.956C2245.84 483.262 2243.47 497.839 2238.72 508.687C2233.98 519.535 2225.16 528.01 2212.28 534.112L2249.91 667H2187.19L2157.02 543.943H2139.73V667H2079.05V392.41ZM2156.68 509.026C2168.89 509.026 2177.36 505.862 2182.11 499.534C2187.08 492.98 2189.57 483.262 2189.57 470.38C2189.57 457.95 2187.31 448.684 2182.79 442.582C2178.27 436.254 2170.47 433.09 2159.4 433.09H2139.73V509.026H2156.68Z"/>
<path d="M2358.32 671.068C2328.49 671.068 2307.24 663.271 2294.59 647.677C2282.16 631.857 2275.94 609.144 2275.94 579.538V480.55C2275.94 450.266 2282.16 427.44 2294.59 412.072C2307.02 396.478 2328.26 388.681 2358.32 388.681C2387.02 388.681 2407.36 395.574 2419.34 409.36C2431.32 423.146 2437.31 442.695 2437.31 468.007V491.737H2377.98V464.278C2377.98 453.656 2376.85 445.52 2374.59 439.87C2372.33 434.22 2366.91 431.395 2358.32 431.395C2349.73 431.395 2344.08 434.446 2341.37 440.548C2338.66 446.424 2337.3 454.673 2337.3 465.295V594.454C2337.3 605.302 2338.66 613.664 2341.37 619.54C2344.31 625.19 2349.96 628.015 2358.32 628.015C2366.68 628.015 2371.99 625.19 2374.25 619.54C2376.74 613.664 2377.98 605.302 2377.98 594.454V565.639H2437.31V589.369C2437.31 615.133 2431.32 635.247 2419.34 649.711C2407.36 663.949 2387.02 671.068 2358.32 671.068Z"/>
<path d="M2471.71 392.41H2532.39V503.602H2574.76V392.41H2635.78V667H2574.76V546.994H2532.39V667H2471.71V392.41Z"/>
<path d="M2830.44 672.085C2811.01 672.085 2796.09 668.695 2785.69 661.915C2775.3 654.909 2768.18 645.304 2764.34 633.1C2760.49 620.896 2758.57 605.415 2758.57 586.657H2813.15C2813.15 602.703 2814.4 614.003 2816.88 620.557C2819.59 626.885 2824.79 630.049 2832.48 630.049C2838.58 630.049 2842.98 628.015 2845.7 623.947C2848.63 619.653 2850.44 613.777 2851.12 606.319C2851.8 598.635 2852.14 587.448 2852.14 572.758C2852.14 557.39 2850.67 545.751 2847.73 537.841C2844.79 529.705 2839.14 525.637 2830.78 525.637C2819.25 525.637 2812.02 533.999 2809.08 550.723H2760.27L2765.35 392.41H2893.5V439.87H2810.78L2807.73 496.483C2810.21 492.867 2815.41 489.816 2823.32 487.33C2831.46 484.618 2839.71 483.262 2848.07 483.262C2866.6 483.262 2880.73 490.946 2890.44 506.314C2900.39 521.682 2905.36 543.378 2905.36 571.402C2905.36 593.324 2903.44 611.517 2899.6 625.981C2895.76 640.219 2888.41 651.519 2877.56 659.881C2866.71 668.017 2851.01 672.085 2830.44 672.085Z"/>
<path d="M3017.11 626.998L3082.88 525.976L3086.95 519.874C3095.53 506.992 3101.86 496.257 3105.93 487.669C3110 478.855 3112.03 469.702 3112.03 460.21C3112.03 452.526 3110.45 446.763 3107.29 442.921C3104.35 438.853 3100.05 436.819 3094.4 436.819C3085.82 436.819 3079.83 440.209 3076.44 446.989C3073.05 453.543 3071.35 462.696 3071.35 474.448V488.008H3016.43V473.431C3016.43 447.667 3022.65 427.101 3035.08 411.733C3047.73 396.365 3067.17 388.681 3093.39 388.681C3117.57 388.681 3135.99 395.009 3148.64 407.665C3161.53 420.321 3167.97 438.175 3167.97 461.227C3167.97 471.623 3166.27 481.454 3162.88 490.72C3159.72 499.986 3155.88 508.348 3151.36 515.806C3146.84 523.264 3139.83 533.886 3130.34 547.672L3080.17 622.591H3160.51V667H3017.11V626.998Z"/>
<path d="M3270.57 672.085C3246.39 672.085 3227.86 664.966 3214.98 650.728C3202.09 636.49 3195.65 617.393 3195.65 593.437V469.024C3195.65 443.938 3201.87 424.276 3214.3 410.038C3226.95 395.574 3245.71 388.342 3270.57 388.342C3295.43 388.342 3314.08 395.574 3326.51 410.038C3338.94 424.276 3345.15 443.938 3345.15 469.024V593.437C3345.15 617.167 3338.6 636.264 3325.49 650.728C3312.61 664.966 3294.3 672.085 3270.57 672.085ZM3270.57 621.574C3277.58 621.574 3282.1 618.636 3284.13 612.76C3286.39 606.884 3287.52 599.991 3287.52 592.081V470.38C3287.52 461.34 3286.5 453.882 3284.47 448.006C3282.66 441.904 3278.03 438.853 3270.57 438.853C3263.11 438.853 3258.37 441.791 3256.33 447.667C3254.53 453.543 3253.62 461.114 3253.62 470.38V592.081C3253.62 611.743 3259.27 621.574 3270.57 621.574Z"/>
<path d="M3377.63 626.998L3443.4 525.976L3447.46 519.874C3456.05 506.992 3462.38 496.257 3466.45 487.669C3470.52 478.855 3472.55 469.702 3472.55 460.21C3472.55 452.526 3470.97 446.763 3467.8 442.921C3464.87 438.853 3460.57 436.819 3454.92 436.819C3446.33 436.819 3440.34 440.209 3436.95 446.989C3433.56 453.543 3431.87 462.696 3431.87 474.448V488.008H3376.95V473.431C3376.95 447.667 3383.17 427.101 3395.6 411.733C3408.25 396.365 3427.69 388.681 3453.9 388.681C3478.09 388.681 3496.51 395.009 3509.16 407.665C3522.04 420.321 3528.48 438.175 3528.48 461.227C3528.48 471.623 3526.79 481.454 3523.4 490.72C3520.24 499.986 3516.39 508.348 3511.87 515.806C3507.35 523.264 3500.35 533.886 3490.86 547.672L3440.68 622.591H3521.03V667H3377.63V626.998Z"/>
<path d="M3551.76 626.998L3617.53 525.976L3621.6 519.874C3630.19 506.992 3636.51 496.257 3640.58 487.669C3644.65 478.855 3646.68 469.702 3646.68 460.21C3646.68 452.526 3645.1 446.763 3641.94 442.921C3639 438.853 3634.71 436.819 3629.06 436.819C3620.47 436.819 3614.48 440.209 3611.09 446.989C3607.7 453.543 3606 462.696 3606 474.448V488.008H3551.09V473.431C3551.09 447.667 3557.3 427.101 3569.73 411.733C3582.39 396.365 3601.82 388.681 3628.04 388.681C3652.22 388.681 3670.64 395.009 3683.3 407.665C3696.18 420.321 3702.62 438.175 3702.62 461.227C3702.62 471.623 3700.92 481.454 3697.53 490.72C3694.37 499.986 3690.53 508.348 3686.01 515.806C3681.49 523.264 3674.48 533.886 3664.99 547.672L3614.82 622.591H3695.16V667H3551.76V626.998Z"/>
</mask>
<path d="M1775.2 331.068C1748.98 331.068 1729.43 324.175 1716.55 310.389C1703.89 296.377 1697.11 274.229 1696.21 243.945L1748.08 236.148C1748.3 253.55 1750.34 266.093 1754.18 273.777C1758.25 281.235 1764.24 284.964 1772.15 284.964C1782.32 284.964 1787.4 278.297 1787.4 264.963C1787.4 254.341 1784.92 245.188 1779.94 237.504C1775.2 229.82 1767.63 221.571 1757.23 212.757L1733.5 192.078C1721.75 182.134 1712.6 171.625 1706.04 160.551C1699.71 149.251 1696.55 135.917 1696.55 120.549C1696.55 97.4969 1703.33 79.7559 1716.89 67.3259C1730.68 54.8959 1749.55 48.6809 1773.5 48.6809C1799.49 48.6809 1817.12 56.2519 1826.39 71.3939C1835.88 86.5359 1840.96 104.955 1841.64 126.651L1789.44 133.092C1788.98 118.854 1787.63 108.684 1785.37 102.582C1783.33 96.2539 1778.7 93.0899 1771.47 93.0899C1766.27 93.0899 1762.2 95.3499 1759.26 99.8699C1756.55 104.164 1755.2 109.023 1755.2 114.447C1755.2 123.713 1757.23 131.51 1761.3 137.838C1765.59 144.166 1772.37 151.398 1781.64 159.534L1804.35 179.535C1817.91 191.061 1828.42 203.265 1835.88 216.147C1843.34 229.029 1847.07 244.284 1847.07 261.912C1847.07 274.794 1844.01 286.546 1837.91 297.168C1832.04 307.564 1823.67 315.813 1812.83 321.915C1801.98 328.017 1789.44 331.068 1775.2 331.068Z" fill="white"/>
<path d="M1912.45 52.4099H1981.6L2032.79 327H1976.86L1967.7 269.031H1927.36L1917.87 327H1860.58L1912.45 52.4099ZM1961.94 232.758L1947.36 125.634L1932.79 232.758H1961.94Z" fill="white"/>
<path d="M2037.04 52.4099H2088.91L2118.4 238.86L2145.86 52.4099H2200.78L2150.6 327H2086.53L2037.04 52.4099Z" fill="white"/>
<path d="M2228.36 52.4099H2351.75V93.7679H2289.04V161.907H2336.84V203.943H2289.04V285.981H2352.43V327H2228.36V52.4099Z" fill="white"/>
<path d="M2491.47 97.4969H2450.11V52.4099H2593.5V97.4969H2552.49V327H2491.47V97.4969Z" fill="white"/>
<path d="M2618.7 52.4099H2679.38V163.602H2721.75V52.4099H2782.77V327H2721.75V206.994H2679.38V327H2618.7V52.4099Z" fill="white"/>
<path d="M2824.59 52.4099H2947.98V93.7679H2885.27V161.907H2933.07V203.943H2885.27V285.981H2948.66V327H2824.59V52.4099Z" fill="white"/>
<path d="M3062.95 52.4099H3132.44C3156.17 52.4099 3174.7 55.3479 3188.04 61.2239C3201.37 67.0999 3210.75 76.3659 3216.18 89.0219C3221.83 101.452 3224.65 118.176 3224.65 139.194V238.86C3224.65 260.104 3221.83 277.054 3216.18 289.71C3210.75 302.366 3201.37 311.745 3188.04 317.847C3174.93 323.949 3156.62 327 3133.12 327H3062.95V52.4099ZM3133.12 284.964C3141.93 284.964 3148.38 283.721 3152.44 281.235C3156.74 278.523 3159.45 274.794 3160.58 270.048C3161.71 265.076 3162.27 257.844 3162.27 248.352V128.685C3162.27 119.871 3161.6 113.204 3160.24 108.684C3159.11 103.938 3156.4 100.435 3152.1 98.1749C3148.04 95.9149 3141.6 94.7849 3132.78 94.7849H3123.63V284.964H3133.12Z" fill="white"/>
<path d="M3296.25 52.4099H3365.41L3416.6 327H3360.66L3351.51 269.031H3311.17L3301.68 327H3244.39L3296.25 52.4099ZM3345.75 232.758L3331.17 125.634L3316.59 232.758H3345.75Z" fill="white"/>
<path d="M3454.5 97.4969H3413.15V52.4099H3556.54V97.4969H3515.52V327H3454.5V97.4969Z" fill="white"/>
<path d="M3580.72 52.4099H3704.11V93.7679H3641.4V161.907H3689.2V203.943H3641.4V285.981H3704.79V327H3580.72V52.4099Z" fill="white"/>
<path d="M128.532 671.068C102.316 671.068 82.7669 664.175 69.8849 650.389C57.2289 636.377 50.4489 614.229 49.5449 583.945L101.412 576.148C101.638 593.55 103.672 606.093 107.514 613.777C111.582 621.235 117.571 624.964 125.481 624.964C135.651 624.964 140.736 618.297 140.736 604.963C140.736 594.341 138.25 585.188 133.278 577.504C128.532 569.82 120.961 561.571 110.565 552.757L86.8349 532.078C75.0829 522.134 65.9299 511.625 59.3759 500.551C53.0479 489.251 49.8839 475.917 49.8839 460.549C49.8839 437.497 56.6639 419.756 70.2239 407.326C84.0099 394.896 102.881 388.681 126.837 388.681C152.827 388.681 170.455 396.252 179.721 411.394C189.213 426.536 194.298 444.955 194.976 466.651L142.77 473.092C142.318 458.854 140.962 448.684 138.702 442.582C136.668 436.254 132.035 433.09 124.803 433.09C119.605 433.09 115.537 435.35 112.599 439.87C109.887 444.164 108.531 449.023 108.531 454.447C108.531 463.713 110.565 471.51 114.633 477.838C118.927 484.166 125.707 491.398 134.973 499.534L157.686 519.535C171.246 531.061 181.755 543.265 189.213 556.147C196.671 569.029 200.4 584.284 200.4 601.912C200.4 614.794 197.349 626.546 191.247 637.168C185.371 647.564 177.009 655.813 166.161 661.915C155.313 668.017 142.77 671.068 128.532 671.068Z" fill="white"/>
<path d="M265.779 392.41H334.935L386.124 667H330.189L321.036 609.031H280.695L271.203 667H213.912L265.779 392.41ZM315.273 572.758L300.696 465.634L286.119 572.758H315.273Z" fill="white"/>
<path d="M424.029 437.497H382.671V392.41H526.068V437.497H485.049V667H424.029V437.497Z" fill="white"/>
<path d="M629.569 671.068C609.003 671.068 592.731 667.791 580.753 661.237C568.775 654.457 560.3 644.626 555.328 631.744C550.582 618.636 548.209 602.025 548.209 581.911V392.41H608.212V591.064C608.212 602.138 609.568 610.952 612.28 617.506C615.218 624.06 620.981 627.337 629.569 627.337C638.157 627.337 643.807 624.06 646.519 617.506C649.231 610.952 650.587 602.138 650.587 591.064V392.41H710.929V581.911C710.929 602.025 708.443 618.636 703.471 631.744C698.499 644.626 690.024 654.457 678.046 661.237C666.294 667.791 650.135 671.068 629.569 671.068Z" fill="white"/>
<path d="M749.538 392.41H825.135C855.193 392.41 877.906 397.721 893.274 408.343C908.642 418.965 916.326 437.836 916.326 464.956C916.326 483.262 913.953 497.839 909.207 508.687C904.461 519.535 895.647 528.01 882.765 534.112L920.394 667H857.679L827.508 543.943H810.219V667H749.538V392.41ZM827.169 509.026C839.373 509.026 847.848 505.862 852.594 499.534C857.566 492.98 860.052 483.262 860.052 470.38C860.052 457.95 857.792 448.684 853.272 442.582C848.752 436.254 840.955 433.09 829.881 433.09H810.219V509.026H827.169Z" fill="white"/>
<path d="M952.805 392.41H1022.3C1046.03 392.41 1064.56 395.348 1077.9 401.224C1091.23 407.1 1100.61 416.366 1106.03 429.022C1111.68 441.452 1114.51 458.176 1114.51 479.194V578.86C1114.51 600.104 1111.68 617.054 1106.03 629.71C1100.61 642.366 1091.23 651.745 1077.9 657.847C1064.79 663.949 1046.48 667 1022.98 667H952.805V392.41ZM1022.98 624.964C1031.79 624.964 1038.23 623.721 1042.3 621.235C1046.6 618.523 1049.31 614.794 1050.44 610.048C1051.57 605.076 1052.13 597.844 1052.13 588.352V468.685C1052.13 459.871 1051.45 453.204 1050.1 448.684C1048.97 443.938 1046.26 440.435 1041.96 438.175C1037.89 435.915 1031.45 434.785 1022.64 434.785H1013.49V624.964H1022.98Z" fill="white"/>
<path d="M1186.11 392.41H1255.27L1306.46 667H1250.52L1241.37 609.031H1201.03L1191.54 667H1134.24L1186.11 392.41ZM1235.61 572.758L1221.03 465.634L1206.45 572.758H1235.61Z" fill="white"/>
<path d="M1355.18 554.791L1302.98 392.41H1360.27L1386.37 479.194L1409.76 392.41H1464.68L1413.49 554.791V667H1355.18V554.791Z" fill="white"/>
<path d="M1485.46 696.493C1492.69 694.685 1498.45 691.521 1502.75 687.001C1507.27 682.707 1509.53 676.04 1509.53 667H1480.37V614.794H1532.92V659.881C1532.46 694.007 1517.77 712.2 1488.85 714.46L1485.46 696.493Z" fill="white"/>
<path d="M1657.38 392.41H1722.46L1752.64 552.079L1785.18 392.41H1847.89L1852.64 667H1809.59L1804.5 484.279L1772.64 667H1734.33L1700.43 482.923L1696.36 667H1652.63L1657.38 392.41Z" fill="white"/>
<path d="M1930.98 392.41H2000.14L2051.33 667H1995.39L1986.24 609.031H1945.9L1936.41 667H1879.12L1930.98 392.41ZM1980.48 572.758L1965.9 465.634L1951.32 572.758H1980.48Z" fill="white"/>
<path d="M2079.05 392.41H2154.65C2184.71 392.41 2207.42 397.721 2222.79 408.343C2238.16 418.965 2245.84 437.836 2245.84 464.956C2245.84 483.262 2243.47 497.839 2238.72 508.687C2233.98 519.535 2225.16 528.01 2212.28 534.112L2249.91 667H2187.19L2157.02 543.943H2139.73V667H2079.05V392.41ZM2156.68 509.026C2168.89 509.026 2177.36 505.862 2182.11 499.534C2187.08 492.98 2189.57 483.262 2189.57 470.38C2189.57 457.95 2187.31 448.684 2182.79 442.582C2178.27 436.254 2170.47 433.09 2159.4 433.09H2139.73V509.026H2156.68Z" fill="white"/>
<path d="M2358.32 671.068C2328.49 671.068 2307.24 663.271 2294.59 647.677C2282.16 631.857 2275.94 609.144 2275.94 579.538V480.55C2275.94 450.266 2282.16 427.44 2294.59 412.072C2307.02 396.478 2328.26 388.681 2358.32 388.681C2387.02 388.681 2407.36 395.574 2419.34 409.36C2431.32 423.146 2437.31 442.695 2437.31 468.007V491.737H2377.98V464.278C2377.98 453.656 2376.85 445.52 2374.59 439.87C2372.33 434.22 2366.91 431.395 2358.32 431.395C2349.73 431.395 2344.08 434.446 2341.37 440.548C2338.66 446.424 2337.3 454.673 2337.3 465.295V594.454C2337.3 605.302 2338.66 613.664 2341.37 619.54C2344.31 625.19 2349.96 628.015 2358.32 628.015C2366.68 628.015 2371.99 625.19 2374.25 619.54C2376.74 613.664 2377.98 605.302 2377.98 594.454V565.639H2437.31V589.369C2437.31 615.133 2431.32 635.247 2419.34 649.711C2407.36 663.949 2387.02 671.068 2358.32 671.068Z" fill="white"/>
<path d="M2471.71 392.41H2532.39V503.602H2574.76V392.41H2635.78V667H2574.76V546.994H2532.39V667H2471.71V392.41Z" fill="white"/>
<path d="M2830.44 672.085C2811.01 672.085 2796.09 668.695 2785.69 661.915C2775.3 654.909 2768.18 645.304 2764.34 633.1C2760.49 620.896 2758.57 605.415 2758.57 586.657H2813.15C2813.15 602.703 2814.4 614.003 2816.88 620.557C2819.59 626.885 2824.79 630.049 2832.48 630.049C2838.58 630.049 2842.98 628.015 2845.7 623.947C2848.63 619.653 2850.44 613.777 2851.12 606.319C2851.8 598.635 2852.14 587.448 2852.14 572.758C2852.14 557.39 2850.67 545.751 2847.73 537.841C2844.79 529.705 2839.14 525.637 2830.78 525.637C2819.25 525.637 2812.02 533.999 2809.08 550.723H2760.27L2765.35 392.41H2893.5V439.87H2810.78L2807.73 496.483C2810.21 492.867 2815.41 489.816 2823.32 487.33C2831.46 484.618 2839.71 483.262 2848.07 483.262C2866.6 483.262 2880.73 490.946 2890.44 506.314C2900.39 521.682 2905.36 543.378 2905.36 571.402C2905.36 593.324 2903.44 611.517 2899.6 625.981C2895.76 640.219 2888.41 651.519 2877.56 659.881C2866.71 668.017 2851.01 672.085 2830.44 672.085Z" fill="white"/>
<path d="M3017.11 626.998L3082.88 525.976L3086.95 519.874C3095.53 506.992 3101.86 496.257 3105.93 487.669C3110 478.855 3112.03 469.702 3112.03 460.21C3112.03 452.526 3110.45 446.763 3107.29 442.921C3104.35 438.853 3100.05 436.819 3094.4 436.819C3085.82 436.819 3079.83 440.209 3076.44 446.989C3073.05 453.543 3071.35 462.696 3071.35 474.448V488.008H3016.43V473.431C3016.43 447.667 3022.65 427.101 3035.08 411.733C3047.73 396.365 3067.17 388.681 3093.39 388.681C3117.57 388.681 3135.99 395.009 3148.64 407.665C3161.53 420.321 3167.97 438.175 3167.97 461.227C3167.97 471.623 3166.27 481.454 3162.88 490.72C3159.72 499.986 3155.88 508.348 3151.36 515.806C3146.84 523.264 3139.83 533.886 3130.34 547.672L3080.17 622.591H3160.51V667H3017.11V626.998Z" fill="white"/>
<path d="M3270.57 672.085C3246.39 672.085 3227.86 664.966 3214.98 650.728C3202.09 636.49 3195.65 617.393 3195.65 593.437V469.024C3195.65 443.938 3201.87 424.276 3214.3 410.038C3226.95 395.574 3245.71 388.342 3270.57 388.342C3295.43 388.342 3314.08 395.574 3326.51 410.038C3338.94 424.276 3345.15 443.938 3345.15 469.024V593.437C3345.15 617.167 3338.6 636.264 3325.49 650.728C3312.61 664.966 3294.3 672.085 3270.57 672.085ZM3270.57 621.574C3277.58 621.574 3282.1 618.636 3284.13 612.76C3286.39 606.884 3287.52 599.991 3287.52 592.081V470.38C3287.52 461.34 3286.5 453.882 3284.47 448.006C3282.66 441.904 3278.03 438.853 3270.57 438.853C3263.11 438.853 3258.37 441.791 3256.33 447.667C3254.53 453.543 3253.62 461.114 3253.62 470.38V592.081C3253.62 611.743 3259.27 621.574 3270.57 621.574Z" fill="white"/>
<path d="M3377.63 626.998L3443.4 525.976L3447.46 519.874C3456.05 506.992 3462.38 496.257 3466.45 487.669C3470.52 478.855 3472.55 469.702 3472.55 460.21C3472.55 452.526 3470.97 446.763 3467.8 442.921C3464.87 438.853 3460.57 436.819 3454.92 436.819C3446.33 436.819 3440.34 440.209 3436.95 446.989C3433.56 453.543 3431.87 462.696 3431.87 474.448V488.008H3376.95V473.431C3376.95 447.667 3383.17 427.101 3395.6 411.733C3408.25 396.365 3427.69 388.681 3453.9 388.681C3478.09 388.681 3496.51 395.009 3509.16 407.665C3522.04 420.321 3528.48 438.175 3528.48 461.227C3528.48 471.623 3526.79 481.454 3523.4 490.72C3520.24 499.986 3516.39 508.348 3511.87 515.806C3507.35 523.264 3500.35 533.886 3490.86 547.672L3440.68 622.591H3521.03V667H3377.63V626.998Z" fill="white"/>
<path d="M3551.76 626.998L3617.53 525.976L3621.6 519.874C3630.19 506.992 3636.51 496.257 3640.58 487.669C3644.65 478.855 3646.68 469.702 3646.68 460.21C3646.68 452.526 3645.1 446.763 3641.94 442.921C3639 438.853 3634.71 436.819 3629.06 436.819C3620.47 436.819 3614.48 440.209 3611.09 446.989C3607.7 453.543 3606 462.696 3606 474.448V488.008H3551.09V473.431C3551.09 447.667 3557.3 427.101 3569.73 411.733C3582.39 396.365 3601.82 388.681 3628.04 388.681C3652.22 388.681 3670.64 395.009 3683.3 407.665C3696.18 420.321 3702.62 438.175 3702.62 461.227C3702.62 471.623 3700.92 481.454 3697.53 490.72C3694.37 499.986 3690.53 508.348 3686.01 515.806C3681.49 523.264 3674.48 533.886 3664.99 547.672L3614.82 622.591H3695.16V667H3551.76V626.998Z" fill="white"/>
<path d="M1775.2 331.068C1748.98 331.068 1729.43 324.175 1716.55 310.389C1703.89 296.377 1697.11 274.229 1696.21 243.945L1748.08 236.148C1748.3 253.55 1750.34 266.093 1754.18 273.777C1758.25 281.235 1764.24 284.964 1772.15 284.964C1782.32 284.964 1787.4 278.297 1787.4 264.963C1787.4 254.341 1784.92 245.188 1779.94 237.504C1775.2 229.82 1767.63 221.571 1757.23 212.757L1733.5 192.078C1721.75 182.134 1712.6 171.625 1706.04 160.551C1699.71 149.251 1696.55 135.917 1696.55 120.549C1696.55 97.4969 1703.33 79.7559 1716.89 67.3259C1730.68 54.8959 1749.55 48.6809 1773.5 48.6809C1799.49 48.6809 1817.12 56.2519 1826.39 71.3939C1835.88 86.5359 1840.96 104.955 1841.64 126.651L1789.44 133.092C1788.98 118.854 1787.63 108.684 1785.37 102.582C1783.33 96.2539 1778.7 93.0899 1771.47 93.0899C1766.27 93.0899 1762.2 95.3499 1759.26 99.8699C1756.55 104.164 1755.2 109.023 1755.2 114.447C1755.2 123.713 1757.23 131.51 1761.3 137.838C1765.59 144.166 1772.37 151.398 1781.64 159.534L1804.35 179.535C1817.91 191.061 1828.42 203.265 1835.88 216.147C1843.34 229.029 1847.07 244.284 1847.07 261.912C1847.07 274.794 1844.01 286.546 1837.91 297.168C1832.04 307.564 1823.67 315.813 1812.83 321.915C1801.98 328.017 1789.44 331.068 1775.2 331.068Z" stroke="black" stroke-width="96" mask="url(#path-1-outside-1)"/>
<path d="M1912.45 52.4099H1981.6L2032.79 327H1976.86L1967.7 269.031H1927.36L1917.87 327H1860.58L1912.45 52.4099ZM1961.94 232.758L1947.36 125.634L1932.79 232.758H1961.94Z" stroke="black" stroke-width="96" mask="url(#path-1-outside-1)"/>
<path d="M2037.04 52.4099H2088.91L2118.4 238.86L2145.86 52.4099H2200.78L2150.6 327H2086.53L2037.04 52.4099Z" stroke="black" stroke-width="96" mask="url(#path-1-outside-1)"/>
<path d="M2228.36 52.4099H2351.75V93.7679H2289.04V161.907H2336.84V203.943H2289.04V285.981H2352.43V327H2228.36V52.4099Z" stroke="black" stroke-width="96" mask="url(#path-1-outside-1)"/>
<path d="M2491.47 97.4969H2450.11V52.4099H2593.5V97.4969H2552.49V327H2491.47V97.4969Z" stroke="black" stroke-width="96" mask="url(#path-1-outside-1)"/>
<path d="M2618.7 52.4099H2679.38V163.602H2721.75V52.4099H2782.77V327H2721.75V206.994H2679.38V327H2618.7V52.4099Z" stroke="black" stroke-width="96" mask="url(#path-1-outside-1)"/>
<path d="M2824.59 52.4099H2947.98V93.7679H2885.27V161.907H2933.07V203.943H2885.27V285.981H2948.66V327H2824.59V52.4099Z" stroke="black" stroke-width="96" mask="url(#path-1-outside-1)"/>
<path d="M3062.95 52.4099H3132.44C3156.17 52.4099 3174.7 55.3479 3188.04 61.2239C3201.37 67.0999 3210.75 76.3659 3216.18 89.0219C3221.83 101.452 3224.65 118.176 3224.65 139.194V238.86C3224.65 260.104 3221.83 277.054 3216.18 289.71C3210.75 302.366 3201.37 311.745 3188.04 317.847C3174.93 323.949 3156.62 327 3133.12 327H3062.95V52.4099ZM3133.12 284.964C3141.93 284.964 3148.38 283.721 3152.44 281.235C3156.74 278.523 3159.45 274.794 3160.58 270.048C3161.71 265.076 3162.27 257.844 3162.27 248.352V128.685C3162.27 119.871 3161.6 113.204 3160.24 108.684C3159.11 103.938 3156.4 100.435 3152.1 98.1749C3148.04 95.9149 3141.6 94.7849 3132.78 94.7849H3123.63V284.964H3133.12Z" stroke="black" stroke-width="96" mask="url(#path-1-outside-1)"/>
<path d="M3296.25 52.4099H3365.41L3416.6 327H3360.66L3351.51 269.031H3311.17L3301.68 327H3244.39L3296.25 52.4099ZM3345.75 232.758L3331.17 125.634L3316.59 232.758H3345.75Z" stroke="black" stroke-width="96" mask="url(#path-1-outside-1)"/>
<path d="M3454.5 97.4969H3413.15V52.4099H3556.54V97.4969H3515.52V327H3454.5V97.4969Z" stroke="black" stroke-width="96" mask="url(#path-1-outside-1)"/>
<path d="M3580.72 52.4099H3704.11V93.7679H3641.4V161.907H3689.2V203.943H3641.4V285.981H3704.79V327H3580.72V52.4099Z" stroke="black" stroke-width="96" mask="url(#path-1-outside-1)"/>
<path d="M128.532 671.068C102.316 671.068 82.7669 664.175 69.8849 650.389C57.2289 636.377 50.4489 614.229 49.5449 583.945L101.412 576.148C101.638 593.55 103.672 606.093 107.514 613.777C111.582 621.235 117.571 624.964 125.481 624.964C135.651 624.964 140.736 618.297 140.736 604.963C140.736 594.341 138.25 585.188 133.278 577.504C128.532 569.82 120.961 561.571 110.565 552.757L86.8349 532.078C75.0829 522.134 65.9299 511.625 59.3759 500.551C53.0479 489.251 49.8839 475.917 49.8839 460.549C49.8839 437.497 56.6639 419.756 70.2239 407.326C84.0099 394.896 102.881 388.681 126.837 388.681C152.827 388.681 170.455 396.252 179.721 411.394C189.213 426.536 194.298 444.955 194.976 466.651L142.77 473.092C142.318 458.854 140.962 448.684 138.702 442.582C136.668 436.254 132.035 433.09 124.803 433.09C119.605 433.09 115.537 435.35 112.599 439.87C109.887 444.164 108.531 449.023 108.531 454.447C108.531 463.713 110.565 471.51 114.633 477.838C118.927 484.166 125.707 491.398 134.973 499.534L157.686 519.535C171.246 531.061 181.755 543.265 189.213 556.147C196.671 569.029 200.4 584.284 200.4 601.912C200.4 614.794 197.349 626.546 191.247 637.168C185.371 647.564 177.009 655.813 166.161 661.915C155.313 668.017 142.77 671.068 128.532 671.068Z" stroke="black" stroke-width="96" mask="url(#path-1-outside-1)"/>
<path d="M265.779 392.41H334.935L386.124 667H330.189L321.036 609.031H280.695L271.203 667H213.912L265.779 392.41ZM315.273 572.758L300.696 465.634L286.119 572.758H315.273Z" stroke="black" stroke-width="96" mask="url(#path-1-outside-1)"/>
<path d="M424.029 437.497H382.671V392.41H526.068V437.497H485.049V667H424.029V437.497Z" stroke="black" stroke-width="96" mask="url(#path-1-outside-1)"/>
<path d="M629.569 671.068C609.003 671.068 592.731 667.791 580.753 661.237C568.775 654.457 560.3 644.626 555.328 631.744C550.582 618.636 548.209 602.025 548.209 581.911V392.41H608.212V591.064C608.212 602.138 609.568 610.952 612.28 617.506C615.218 624.06 620.981 627.337 629.569 627.337C638.157 627.337 643.807 624.06 646.519 617.506C649.231 610.952 650.587 602.138 650.587 591.064V392.41H710.929V581.911C710.929 602.025 708.443 618.636 703.471 631.744C698.499 644.626 690.024 654.457 678.046 661.237C666.294 667.791 650.135 671.068 629.569 671.068Z" stroke="black" stroke-width="96" mask="url(#path-1-outside-1)"/>
<path d="M749.538 392.41H825.135C855.193 392.41 877.906 397.721 893.274 408.343C908.642 418.965 916.326 437.836 916.326 464.956C916.326 483.262 913.953 497.839 909.207 508.687C904.461 519.535 895.647 528.01 882.765 534.112L920.394 667H857.679L827.508 543.943H810.219V667H749.538V392.41ZM827.169 509.026C839.373 509.026 847.848 505.862 852.594 499.534C857.566 492.98 860.052 483.262 860.052 470.38C860.052 457.95 857.792 448.684 853.272 442.582C848.752 436.254 840.955 433.09 829.881 433.09H810.219V509.026H827.169Z" stroke="black" stroke-width="96" mask="url(#path-1-outside-1)"/>
<path d="M952.805 392.41H1022.3C1046.03 392.41 1064.56 395.348 1077.9 401.224C1091.23 407.1 1100.61 416.366 1106.03 429.022C1111.68 441.452 1114.51 458.176 1114.51 479.194V578.86C1114.51 600.104 1111.68 617.054 1106.03 629.71C1100.61 642.366 1091.23 651.745 1077.9 657.847C1064.79 663.949 1046.48 667 1022.98 667H952.805V392.41ZM1022.98 624.964C1031.79 624.964 1038.23 623.721 1042.3 621.235C1046.6 618.523 1049.31 614.794 1050.44 610.048C1051.57 605.076 1052.13 597.844 1052.13 588.352V468.685C1052.13 459.871 1051.45 453.204 1050.1 448.684C1048.97 443.938 1046.26 440.435 1041.96 438.175C1037.89 435.915 1031.45 434.785 1022.64 434.785H1013.49V624.964H1022.98Z" stroke="black" stroke-width="96" mask="url(#path-1-outside-1)"/>
<path d="M1186.11 392.41H1255.27L1306.46 667H1250.52L1241.37 609.031H1201.03L1191.54 667H1134.24L1186.11 392.41ZM1235.61 572.758L1221.03 465.634L1206.45 572.758H1235.61Z" stroke="black" stroke-width="96" mask="url(#path-1-outside-1)"/>
<path d="M1355.18 554.791L1302.98 392.41H1360.27L1386.37 479.194L1409.76 392.41H1464.68L1413.49 554.791V667H1355.18V554.791Z" stroke="black" stroke-width="96" mask="url(#path-1-outside-1)"/>
<path d="M1485.46 696.493C1492.69 694.685 1498.45 691.521 1502.75 687.001C1507.27 682.707 1509.53 676.04 1509.53 667H1480.37V614.794H1532.92V659.881C1532.46 694.007 1517.77 712.2 1488.85 714.46L1485.46 696.493Z" stroke="black" stroke-width="96" mask="url(#path-1-outside-1)"/>
<path d="M1657.38 392.41H1722.46L1752.64 552.079L1785.18 392.41H1847.89L1852.64 667H1809.59L1804.5 484.279L1772.64 667H1734.33L1700.43 482.923L1696.36 667H1652.63L1657.38 392.41Z" stroke="black" stroke-width="96" mask="url(#path-1-outside-1)"/>
<path d="M1930.98 392.41H2000.14L2051.33 667H1995.39L1986.24 609.031H1945.9L1936.41 667H1879.12L1930.98 392.41ZM1980.48 572.758L1965.9 465.634L1951.32 572.758H1980.48Z" stroke="black" stroke-width="96" mask="url(#path-1-outside-1)"/>
<path d="M2079.05 392.41H2154.65C2184.71 392.41 2207.42 397.721 2222.79 408.343C2238.16 418.965 2245.84 437.836 2245.84 464.956C2245.84 483.262 2243.47 497.839 2238.72 508.687C2233.98 519.535 2225.16 528.01 2212.28 534.112L2249.91 667H2187.19L2157.02 543.943H2139.73V667H2079.05V392.41ZM2156.68 509.026C2168.89 509.026 2177.36 505.862 2182.11 499.534C2187.08 492.98 2189.57 483.262 2189.57 470.38C2189.57 457.95 2187.31 448.684 2182.79 442.582C2178.27 436.254 2170.47 433.09 2159.4 433.09H2139.73V509.026H2156.68Z" stroke="black" stroke-width="96" mask="url(#path-1-outside-1)"/>
<path d="M2358.32 671.068C2328.49 671.068 2307.24 663.271 2294.59 647.677C2282.16 631.857 2275.94 609.144 2275.94 579.538V480.55C2275.94 450.266 2282.16 427.44 2294.59 412.072C2307.02 396.478 2328.26 388.681 2358.32 388.681C2387.02 388.681 2407.36 395.574 2419.34 409.36C2431.32 423.146 2437.31 442.695 2437.31 468.007V491.737H2377.98V464.278C2377.98 453.656 2376.85 445.52 2374.59 439.87C2372.33 434.22 2366.91 431.395 2358.32 431.395C2349.73 431.395 2344.08 434.446 2341.37 440.548C2338.66 446.424 2337.3 454.673 2337.3 465.295V594.454C2337.3 605.302 2338.66 613.664 2341.37 619.54C2344.31 625.19 2349.96 628.015 2358.32 628.015C2366.68 628.015 2371.99 625.19 2374.25 619.54C2376.74 613.664 2377.98 605.302 2377.98 594.454V565.639H2437.31V589.369C2437.31 615.133 2431.32 635.247 2419.34 649.711C2407.36 663.949 2387.02 671.068 2358.32 671.068Z" stroke="black" stroke-width="96" mask="url(#path-1-outside-1)"/>
<path d="M2471.71 392.41H2532.39V503.602H2574.76V392.41H2635.78V667H2574.76V546.994H2532.39V667H2471.71V392.41Z" stroke="black" stroke-width="96" mask="url(#path-1-outside-1)"/>
<path d="M2830.44 672.085C2811.01 672.085 2796.09 668.695 2785.69 661.915C2775.3 654.909 2768.18 645.304 2764.34 633.1C2760.49 620.896 2758.57 605.415 2758.57 586.657H2813.15C2813.15 602.703 2814.4 614.003 2816.88 620.557C2819.59 626.885 2824.79 630.049 2832.48 630.049C2838.58 630.049 2842.98 628.015 2845.7 623.947C2848.63 619.653 2850.44 613.777 2851.12 606.319C2851.8 598.635 2852.14 587.448 2852.14 572.758C2852.14 557.39 2850.67 545.751 2847.73 537.841C2844.79 529.705 2839.14 525.637 2830.78 525.637C2819.25 525.637 2812.02 533.999 2809.08 550.723H2760.27L2765.35 392.41H2893.5V439.87H2810.78L2807.73 496.483C2810.21 492.867 2815.41 489.816 2823.32 487.33C2831.46 484.618 2839.71 483.262 2848.07 483.262C2866.6 483.262 2880.73 490.946 2890.44 506.314C2900.39 521.682 2905.36 543.378 2905.36 571.402C2905.36 593.324 2903.44 611.517 2899.6 625.981C2895.76 640.219 2888.41 651.519 2877.56 659.881C2866.71 668.017 2851.01 672.085 2830.44 672.085Z" stroke="black" stroke-width="96" mask="url(#path-1-outside-1)"/>
<path d="M3017.11 626.998L3082.88 525.976L3086.95 519.874C3095.53 506.992 3101.86 496.257 3105.93 487.669C3110 478.855 3112.03 469.702 3112.03 460.21C3112.03 452.526 3110.45 446.763 3107.29 442.921C3104.35 438.853 3100.05 436.819 3094.4 436.819C3085.82 436.819 3079.83 440.209 3076.44 446.989C3073.05 453.543 3071.35 462.696 3071.35 474.448V488.008H3016.43V473.431C3016.43 447.667 3022.65 427.101 3035.08 411.733C3047.73 396.365 3067.17 388.681 3093.39 388.681C3117.57 388.681 3135.99 395.009 3148.64 407.665C3161.53 420.321 3167.97 438.175 3167.97 461.227C3167.97 471.623 3166.27 481.454 3162.88 490.72C3159.72 499.986 3155.88 508.348 3151.36 515.806C3146.84 523.264 3139.83 533.886 3130.34 547.672L3080.17 622.591H3160.51V667H3017.11V626.998Z" stroke="black" stroke-width="96" mask="url(#path-1-outside-1)"/>
<path d="M3270.57 672.085C3246.39 672.085 3227.86 664.966 3214.98 650.728C3202.09 636.49 3195.65 617.393 3195.65 593.437V469.024C3195.65 443.938 3201.87 424.276 3214.3 410.038C3226.95 395.574 3245.71 388.342 3270.57 388.342C3295.43 388.342 3314.08 395.574 3326.51 410.038C3338.94 424.276 3345.15 443.938 3345.15 469.024V593.437C3345.15 617.167 3338.6 636.264 3325.49 650.728C3312.61 664.966 3294.3 672.085 3270.57 672.085ZM3270.57 621.574C3277.58 621.574 3282.1 618.636 3284.13 612.76C3286.39 606.884 3287.52 599.991 3287.52 592.081V470.38C3287.52 461.34 3286.5 453.882 3284.47 448.006C3282.66 441.904 3278.03 438.853 3270.57 438.853C3263.11 438.853 3258.37 441.791 3256.33 447.667C3254.53 453.543 3253.62 461.114 3253.62 470.38V592.081C3253.62 611.743 3259.27 621.574 3270.57 621.574Z" stroke="black" stroke-width="96" mask="url(#path-1-outside-1)"/>
<path d="M3377.63 626.998L3443.4 525.976L3447.46 519.874C3456.05 506.992 3462.38 496.257 3466.45 487.669C3470.52 478.855 3472.55 469.702 3472.55 460.21C3472.55 452.526 3470.97 446.763 3467.8 442.921C3464.87 438.853 3460.57 436.819 3454.92 436.819C3446.33 436.819 3440.34 440.209 3436.95 446.989C3433.56 453.543 3431.87 462.696 3431.87 474.448V488.008H3376.95V473.431C3376.95 447.667 3383.17 427.101 3395.6 411.733C3408.25 396.365 3427.69 388.681 3453.9 388.681C3478.09 388.681 3496.51 395.009 3509.16 407.665C3522.04 420.321 3528.48 438.175 3528.48 461.227C3528.48 471.623 3526.79 481.454 3523.4 490.72C3520.24 499.986 3516.39 508.348 3511.87 515.806C3507.35 523.264 3500.35 533.886 3490.86 547.672L3440.68 622.591H3521.03V667H3377.63V626.998Z" stroke="black" stroke-width="96" mask="url(#path-1-outside-1)"/>
<path d="M3551.76 626.998L3617.53 525.976L3621.6 519.874C3630.19 506.992 3636.51 496.257 3640.58 487.669C3644.65 478.855 3646.68 469.702 3646.68 460.21C3646.68 452.526 3645.1 446.763 3641.94 442.921C3639 438.853 3634.71 436.819 3629.06 436.819C3620.47 436.819 3614.48 440.209 3611.09 446.989C3607.7 453.543 3606 462.696 3606 474.448V488.008H3551.09V473.431C3551.09 447.667 3557.3 427.101 3569.73 411.733C3582.39 396.365 3601.82 388.681 3628.04 388.681C3652.22 388.681 3670.64 395.009 3683.3 407.665C3696.18 420.321 3702.62 438.175 3702.62 461.227C3702.62 471.623 3700.92 481.454 3697.53 490.72C3694.37 499.986 3690.53 508.348 3686.01 515.806C3681.49 523.264 3674.48 533.886 3664.99 547.672L3614.82 622.591H3695.16V667H3551.76V626.998Z" stroke="black" stroke-width="96" mask="url(#path-1-outside-1)"/>
</svg>
