<svg width="307" height="495" viewBox="0 0 307 495" fill="none" xmlns="http://www.w3.org/2000/svg">
<path fill-rule="evenodd" clip-rule="evenodd" d="M102.508 274.505C102.431 274.559 90.099 268.391 85.368 265.621C72.9994 258.381 68.9291 256.098 66.1864 255.406C57.9378 253.327 52.9084 259.267 49.3337 267.271C47.4516 271.486 45.7982 278.877 45.9236 282.517C45.9826 284.238 45.8993 284.683 45.3936 285.342C42.2348 289.453 39.3406 299.933 39.7914 305.627C39.9034 307.042 40.1324 308.627 40.3006 309.15C40.5906 310.054 40.5299 310.173 39.0941 311.515C36.2512 314.172 36.0159 314.718 32.4694 326.887C30.6769 333.038 29.191 338.665 29.1682 339.392C29.1418 340.215 28.8428 341.217 28.3747 342.048C27.2436 344.059 26.6891 345.52 25.3811 349.938C23.6365 355.829 23.6903 359.202 25.6216 365.026L26.5344 367.779L23.8927 369.657C19.6611 372.666 14.4742 387.092 15.3855 390.279C16.2969 393.466 15.3011 393.497 13.4067 395.246C11.5805 396.932 10.6398 400.048 9.38796 404.194L9.24641 404.663C6.23798 414.611 6.78177 420.73 11.2781 427.529C12.1929 428.912 13.7884 430.867 14.8238 431.873C15.8596 432.879 19.7182 436.224 27.2974 441.533C43.447 452.844 51.8509 454.491 54.055 455.363C55.6599 455.998 55.7139 456.064 56.2716 458.039C57.5211 462.462 61.0499 465.751 65.6824 466.809C67.3784 467.196 68.8229 467.332 69.9038 467.208C70.8075 467.103 82.1985 463.998 95.2169 460.308C116.247 454.346 119.119 453.448 120.974 452.26C123.25 450.803 124.941 448.903 125.872 446.757C126.201 446 134.961 413.571 145.339 374.692C155.718 335.813 164.4 303.404 164.634 302.671L165.058 301.338L172.563 299.186C180.359 296.95 181.614 296.681 181.512 297.271C181.32 298.371 181.238 397.757 181.427 398.881C182.388 404.576 187.954 409.327 193.673 409.333C197.025 409.337 240.623 400.062 244.472 398.881L237.523 27.5008L168.717 27.5008L102.508 274.505ZM112.785 299.154L69.086 453.588L114.521 440.656L154.766 290.131L194.912 278.697L194.619 395.68L229.692 389.775L226.263 41.3465L179.296 41.3344L112.785 299.154ZM62.0645 434.506C63.4981 429.291 61.6213 424.867 56.4278 421.232C47.4096 414.923 38.4056 408.623 29.4157 402.33C24.2642 398.725 20.9295 399.502 19.3958 404.659C18.8866 406.362 18.3793 408.067 17.8741 409.774C16.3344 414.926 18.1567 419.317 23.3599 422.952C32.4344 429.297 41.516 435.646 50.6047 441.999C55.8346 445.654 59.1817 444.882 60.6301 439.678C60.8093 439.034 60.9884 438.389 61.1674 437.744L61.4469 436.736L61.6592 435.97L61.9302 434.991L62.0645 434.506ZM51.754 400.977C54.328 402.78 56.9042 404.584 59.4825 406.388C60.4735 407.08 60.8293 407.93 60.5542 408.929L60.4277 409.388L60.3046 409.834C60.0286 410.84 59.3942 410.992 58.4004 410.296L54.7701 407.753L52.6238 406.249L50.3937 414.169C52.6268 415.732 54.8587 417.294 57.0897 418.856C62.2776 422.483 65.5822 421.685 67.007 416.462L68.2493 411.882C69.6684 406.652 67.8093 402.243 62.6795 398.647C59.758 396.602 56.8377 394.556 53.9187 392.51C51.0394 390.492 48.9273 390.447 47.576 392.374C47.365 389.452 45.6437 386.855 42.417 384.596C40.252 383.079 38.0881 381.562 35.9256 380.043C30.8221 376.47 27.5118 377.261 25.9902 382.425L24.7216 386.708C23.1935 391.871 24.9983 396.247 30.1433 399.852C32.1069 401.226 34.0715 402.601 36.0372 403.976C36.7985 401.349 37.5588 398.721 38.3181 396.092L33.3376 392.604C32.3502 391.909 32.0029 391.07 32.2904 390.075C32.3563 389.855 32.42 389.636 32.4814 389.418C32.7753 388.424 33.413 388.272 34.3976 388.963L41.4494 393.903C42.4367 394.597 42.7873 395.437 42.5025 396.435L40.7179 402.656C43.1583 404.366 45.6008 406.075 48.0455 407.785C48.6481 405.669 49.2477 403.551 49.8442 401.432C50.1253 400.437 50.7634 400.282 51.754 400.977ZM72.7592 393.648C69.7342 391.529 66.7103 389.409 63.6875 387.29L61.5352 395.116C64.5703 397.241 67.6062 399.368 70.6429 401.498L72.7592 393.648ZM77.2762 378.371C78.6732 373.135 76.8482 368.74 71.7964 365.197C63.0343 359.045 54.2773 352.896 45.5255 346.748C40.495 343.217 37.2323 344.043 35.7295 349.213C35.2304 350.923 34.7312 352.633 34.2318 354.345C32.7226 359.514 34.5025 363.88 39.5787 367.436C48.4193 373.637 57.27 379.845 66.1307 386.059C71.2277 389.632 74.4806 388.804 75.8874 383.569C76.348 381.837 76.8109 380.104 77.2762 378.371ZM77.9757 342.216C73.6215 339.152 69.2699 336.092 64.921 333.037C62.9315 331.636 61.1994 331.111 59.728 331.464C58.2289 331.754 57.2054 332.877 56.657 334.837C56.6431 334.877 56.6313 334.917 56.6217 334.957C56.0409 337.04 56.252 339.488 57.2616 342.302L48.6311 336.094C49.7206 332.263 50.8082 328.429 51.8939 324.592C49.5043 322.911 47.1136 321.23 44.7218 319.549C42.8743 325.966 41.0239 332.381 39.1705 338.793C46.7432 344.113 54.3201 349.434 61.9014 354.756C62.6039 352.211 63.3057 349.663 64.0067 347.114C63.1426 345.406 62.8146 344.171 63.0287 343.412C63.3046 342.406 63.9987 342.297 65.1149 343.081C68.3683 345.369 71.6219 347.656 74.8758 349.94C75.8391 350.619 76.186 351.461 75.9165 352.468C75.8471 352.731 75.7767 352.993 75.7054 353.254C75.4359 354.26 74.8163 354.424 73.8534 353.743C71.6926 352.227 69.531 350.709 67.3684 349.191C66.6289 351.901 65.8873 354.611 65.1435 357.321C67.6033 359.048 70.064 360.776 72.5257 362.506C77.5651 366.045 80.7848 365.196 82.1763 359.953C82.5827 358.419 82.988 356.884 83.3922 355.35C84.7805 350.106 82.9702 345.723 77.9757 342.216ZM87.7831 337.126C84.835 335.052 81.8899 332.98 78.9477 330.91C78.2484 333.53 77.548 336.149 76.8466 338.769C79.8014 340.842 82.7568 342.918 85.7129 344.998C86.4042 342.373 87.0942 339.749 87.7831 337.126ZM67.282 308.046C69.3521 312.209 71.4263 316.375 73.5044 320.544C74.6816 322.903 75.7934 324.741 76.8465 326.055C77.8963 327.369 79.1692 328.552 80.6561 329.599C83.2154 331.398 85.7766 333.2 88.3397 335.004C90.0878 328.314 91.8341 321.622 93.5785 314.928C91.2046 313.26 88.8339 311.592 86.4665 309.925C85.4404 313.822 84.4134 317.717 83.3854 321.611C83.3384 321.577 83.2912 321.543 83.244 321.51C83.2238 321.496 83.2035 321.482 83.1832 321.468C83.1672 321.457 83.1511 321.446 83.135 321.435L83.1005 321.411L83.0981 321.41C82.0719 320.687 81.0997 319.43 80.1786 317.633C78.0968 313.46 76.0208 309.291 73.9506 305.128C71.9184 301.017 69.5693 298.024 66.8982 296.138L60.9748 291.964C56.0901 288.517 52.9123 289.394 51.4391 294.587C51.0466 295.967 50.6553 297.345 50.2652 298.723C48.7864 303.909 50.5178 308.245 55.4546 311.718L62.9221 316.977C63.6534 314.329 64.3837 311.681 65.1129 309.032C63.9254 308.197 62.7385 307.362 61.5522 306.527C60.5446 305.818 59.5374 305.109 58.5307 304.399C57.5822 303.733 57.2473 302.898 57.5324 301.897L57.6075 301.625L57.6817 301.358C57.9604 300.356 58.5736 300.191 59.5194 300.854C61.1406 301.999 62.764 303.143 64.3898 304.286C65.4067 305.004 66.3729 306.258 67.282 308.046ZM73.2785 286.035C75.3246 290.182 77.3746 294.332 79.4284 298.487C80.5904 300.838 81.6902 302.667 82.7312 303.973C83.7687 305.282 85.03 306.454 86.5048 307.493C89.0398 309.278 91.5767 311.066 94.1155 312.856C95.8516 306.158 97.5858 299.459 99.3179 292.759C98.2924 292.036 97.2677 291.313 96.2437 290.592C95.5857 290.128 94.928 289.664 94.2707 289.201C93.6074 288.733 92.9445 288.266 92.2819 287.798C91.2556 291.697 90.2315 295.595 89.2097 299.492C89.1839 299.474 89.158 299.455 89.1321 299.437C89.1168 299.426 89.1015 299.415 89.0862 299.404C89.061 299.386 89.0356 299.369 89.0102 299.351C88.9821 299.331 88.9538 299.311 88.9255 299.291C87.9086 298.573 86.9484 297.324 86.0365 295.531C83.9806 291.377 81.9305 287.227 79.8862 283.083C77.8812 278.988 75.557 276.004 72.9067 274.135L67.0378 269.994C62.1886 266.575 59.0505 267.473 57.6046 272.683C57.2185 274.063 56.8333 275.445 56.449 276.827C54.9878 282.029 56.6993 286.343 61.5812 289.786C63.1661 290.903 64.751 292.02 66.3358 293.137C67.212 293.755 68.0881 294.373 68.9642 294.991C69.6851 292.34 70.4082 289.688 71.1334 287.037C68.9618 285.505 66.7909 283.974 64.6209 282.446C63.6844 281.788 63.3527 280.954 63.631 279.954L63.7054 279.684L63.7811 279.409C64.0566 278.406 64.6642 278.235 65.5971 278.896C67.2026 280.028 68.8099 281.162 70.419 282.298C71.4244 283.005 72.3782 284.254 73.2785 286.035Z" fill="black"/>
<path d="M161.088 253.801L192.692 246.636L197.31 84.4162L161.088 253.801Z" fill="black"/>
<path d="M44.016 355.677C43.0462 354.998 42.4178 355.154 42.1302 356.148C42.0262 356.509 41.9223 356.869 41.8185 357.228C41.5342 358.223 41.8751 359.061 42.8504 359.748C51.0723 365.517 59.3003 371.289 67.5345 377.064C68.5099 377.751 69.1355 377.591 69.4082 376.585C69.5059 376.223 69.6046 375.861 69.7043 375.5C69.9771 374.493 69.6269 373.65 68.6512 372.967C60.4336 367.199 52.2218 361.435 44.016 355.677Z" fill="black"/>
<path d="M27.8789 411.243C26.8819 410.547 26.2414 410.695 25.9475 411.688C25.8415 412.047 25.7358 412.404 25.6301 412.761C25.3394 413.755 25.6927 414.598 26.6893 415.297C35.1312 421.2 43.5849 427.112 52.0505 433.032C53.0531 433.736 53.6944 433.581 53.9755 432.586C54.0017 432.493 54.0277 432.401 54.0537 432.308C54.0783 432.221 54.1028 432.133 54.1273 432.045C54.1777 431.865 54.2278 431.685 54.2776 431.505C54.5596 430.503 54.1974 429.652 53.1976 428.953C44.7459 423.042 36.3063 417.139 27.8789 411.243Z" fill="black"/>
</svg>
